<mxfile host="app.diagrams.net" modified="2023-09-12T22:56:11.145Z" agent="Mozilla/5.0 (Windows NT 10.0; Win64; x64) AppleWebKit/537.36 (KHTML, like Gecko) Chrome/116.0.0.0 Safari/537.36" etag="l3CgToKxS2ehCQ33oX4V" version="21.6.8" type="device" pages="2">
  <diagram name="PÃ¡gina-1" id="XQxellcCGZuR1bLGAlUZ">
    <mxGraphModel dx="1434" dy="758" grid="1" gridSize="10" guides="1" tooltips="1" connect="1" arrows="1" fold="1" page="1" pageScale="1" pageWidth="827" pageHeight="1169" math="0" shadow="0">
      <root>
        <mxCell id="0" />
        <mxCell id="1" parent="0" />
        <mxCell id="vvlveEdbjAr3aO2LPiAl-4" style="edgeStyle=orthogonalEdgeStyle;rounded=0;orthogonalLoop=1;jettySize=auto;html=1;" edge="1" parent="1" source="vvlveEdbjAr3aO2LPiAl-1" target="vvlveEdbjAr3aO2LPiAl-2">
          <mxGeometry relative="1" as="geometry" />
        </mxCell>
        <mxCell id="vvlveEdbjAr3aO2LPiAl-1" value="" style="ellipse;whiteSpace=wrap;html=1;" vertex="1" parent="1">
          <mxGeometry x="240" y="100" width="70" height="70" as="geometry" />
        </mxCell>
        <mxCell id="vvlveEdbjAr3aO2LPiAl-5" style="edgeStyle=orthogonalEdgeStyle;rounded=0;orthogonalLoop=1;jettySize=auto;html=1;" edge="1" parent="1" source="vvlveEdbjAr3aO2LPiAl-2" target="vvlveEdbjAr3aO2LPiAl-3">
          <mxGeometry relative="1" as="geometry" />
        </mxCell>
        <mxCell id="vvlveEdbjAr3aO2LPiAl-2" value="" style="ellipse;whiteSpace=wrap;html=1;fillColor=#f8cecc;strokeColor=#b85450;" vertex="1" parent="1">
          <mxGeometry x="240" y="230" width="70" height="70" as="geometry" />
        </mxCell>
        <mxCell id="vvlveEdbjAr3aO2LPiAl-3" value="" style="ellipse;whiteSpace=wrap;html=1;" vertex="1" parent="1">
          <mxGeometry x="240" y="350" width="70" height="70" as="geometry" />
        </mxCell>
        <mxCell id="vvlveEdbjAr3aO2LPiAl-6" value="12/09" style="text;html=1;strokeColor=none;fillColor=none;align=center;verticalAlign=middle;whiteSpace=wrap;rounded=0;" vertex="1" parent="1">
          <mxGeometry x="310" y="120" width="60" height="30" as="geometry" />
        </mxCell>
        <mxCell id="vvlveEdbjAr3aO2LPiAl-7" value="19/09" style="text;html=1;strokeColor=none;fillColor=none;align=center;verticalAlign=middle;whiteSpace=wrap;rounded=0;" vertex="1" parent="1">
          <mxGeometry x="310" y="250" width="60" height="30" as="geometry" />
        </mxCell>
        <mxCell id="vvlveEdbjAr3aO2LPiAl-8" value="26/09" style="text;html=1;strokeColor=none;fillColor=none;align=center;verticalAlign=middle;whiteSpace=wrap;rounded=0;" vertex="1" parent="1">
          <mxGeometry x="310" y="370" width="60" height="30" as="geometry" />
        </mxCell>
        <mxCell id="vvlveEdbjAr3aO2LPiAl-14" style="edgeStyle=orthogonalEdgeStyle;rounded=0;orthogonalLoop=1;jettySize=auto;html=1;entryX=0.5;entryY=0;entryDx=0;entryDy=0;exitX=0.5;exitY=1;exitDx=0;exitDy=0;" edge="1" parent="1" source="vvlveEdbjAr3aO2LPiAl-3" target="vvlveEdbjAr3aO2LPiAl-12">
          <mxGeometry relative="1" as="geometry" />
        </mxCell>
        <mxCell id="vvlveEdbjAr3aO2LPiAl-9" value="HTTP&lt;br&gt;+&lt;br&gt;Backend" style="text;html=1;strokeColor=none;fillColor=none;align=center;verticalAlign=middle;whiteSpace=wrap;rounded=0;" vertex="1" parent="1">
          <mxGeometry x="245" y="370" width="60" height="30" as="geometry" />
        </mxCell>
        <mxCell id="vvlveEdbjAr3aO2LPiAl-10" value="Git&lt;br&gt;+&lt;br&gt;EJ" style="text;html=1;strokeColor=none;fillColor=none;align=center;verticalAlign=middle;whiteSpace=wrap;rounded=0;" vertex="1" parent="1">
          <mxGeometry x="245" y="120" width="60" height="30" as="geometry" />
        </mxCell>
        <mxCell id="vvlveEdbjAr3aO2LPiAl-44" style="edgeStyle=orthogonalEdgeStyle;rounded=0;orthogonalLoop=1;jettySize=auto;html=1;exitX=0.5;exitY=1;exitDx=0;exitDy=0;" edge="1" parent="1" source="vvlveEdbjAr3aO2LPiAl-2" target="vvlveEdbjAr3aO2LPiAl-43">
          <mxGeometry relative="1" as="geometry" />
        </mxCell>
        <mxCell id="vvlveEdbjAr3aO2LPiAl-11" value="No hay&lt;br&gt;Clase" style="text;html=1;strokeColor=none;fillColor=none;align=center;verticalAlign=middle;whiteSpace=wrap;rounded=0;" vertex="1" parent="1">
          <mxGeometry x="245" y="250" width="60" height="30" as="geometry" />
        </mxCell>
        <mxCell id="vvlveEdbjAr3aO2LPiAl-16" style="edgeStyle=orthogonalEdgeStyle;rounded=0;orthogonalLoop=1;jettySize=auto;html=1;entryX=0.5;entryY=0;entryDx=0;entryDy=0;" edge="1" parent="1" source="vvlveEdbjAr3aO2LPiAl-12" target="vvlveEdbjAr3aO2LPiAl-15">
          <mxGeometry relative="1" as="geometry" />
        </mxCell>
        <mxCell id="vvlveEdbjAr3aO2LPiAl-12" value="EJ&lt;br&gt;Backend" style="ellipse;whiteSpace=wrap;html=1;" vertex="1" parent="1">
          <mxGeometry x="240" y="470" width="70" height="70" as="geometry" />
        </mxCell>
        <mxCell id="vvlveEdbjAr3aO2LPiAl-13" value="03/10" style="text;html=1;strokeColor=none;fillColor=none;align=center;verticalAlign=middle;whiteSpace=wrap;rounded=0;" vertex="1" parent="1">
          <mxGeometry x="310" y="490" width="60" height="30" as="geometry" />
        </mxCell>
        <mxCell id="vvlveEdbjAr3aO2LPiAl-20" style="edgeStyle=orthogonalEdgeStyle;rounded=0;orthogonalLoop=1;jettySize=auto;html=1;entryX=0.5;entryY=0;entryDx=0;entryDy=0;" edge="1" parent="1" source="vvlveEdbjAr3aO2LPiAl-15" target="vvlveEdbjAr3aO2LPiAl-18">
          <mxGeometry relative="1" as="geometry" />
        </mxCell>
        <mxCell id="vvlveEdbjAr3aO2LPiAl-37" style="edgeStyle=orthogonalEdgeStyle;rounded=0;orthogonalLoop=1;jettySize=auto;html=1;exitX=0.5;exitY=1;exitDx=0;exitDy=0;" edge="1" parent="1" source="vvlveEdbjAr3aO2LPiAl-15" target="vvlveEdbjAr3aO2LPiAl-35">
          <mxGeometry relative="1" as="geometry" />
        </mxCell>
        <mxCell id="vvlveEdbjAr3aO2LPiAl-15" value="EJ&lt;br&gt;Backend" style="ellipse;whiteSpace=wrap;html=1;" vertex="1" parent="1">
          <mxGeometry x="240" y="585" width="70" height="70" as="geometry" />
        </mxCell>
        <mxCell id="vvlveEdbjAr3aO2LPiAl-17" value="10/10" style="text;html=1;strokeColor=none;fillColor=none;align=center;verticalAlign=middle;whiteSpace=wrap;rounded=0;" vertex="1" parent="1">
          <mxGeometry x="310" y="605" width="60" height="30" as="geometry" />
        </mxCell>
        <mxCell id="vvlveEdbjAr3aO2LPiAl-22" style="edgeStyle=orthogonalEdgeStyle;rounded=0;orthogonalLoop=1;jettySize=auto;html=1;entryX=0.5;entryY=0;entryDx=0;entryDy=0;" edge="1" parent="1" source="vvlveEdbjAr3aO2LPiAl-18" target="vvlveEdbjAr3aO2LPiAl-21">
          <mxGeometry relative="1" as="geometry" />
        </mxCell>
        <mxCell id="vvlveEdbjAr3aO2LPiAl-18" value="HTTP&lt;br&gt;+&lt;br&gt;Front&lt;br&gt;End" style="ellipse;whiteSpace=wrap;html=1;" vertex="1" parent="1">
          <mxGeometry x="240" y="700" width="70" height="70" as="geometry" />
        </mxCell>
        <mxCell id="vvlveEdbjAr3aO2LPiAl-19" value="10/10" style="text;html=1;strokeColor=none;fillColor=none;align=center;verticalAlign=middle;whiteSpace=wrap;rounded=0;" vertex="1" parent="1">
          <mxGeometry x="310" y="720" width="60" height="30" as="geometry" />
        </mxCell>
        <mxCell id="vvlveEdbjAr3aO2LPiAl-24" style="edgeStyle=orthogonalEdgeStyle;rounded=0;orthogonalLoop=1;jettySize=auto;html=1;entryX=0.5;entryY=0;entryDx=0;entryDy=0;" edge="1" parent="1" source="vvlveEdbjAr3aO2LPiAl-21" target="vvlveEdbjAr3aO2LPiAl-23">
          <mxGeometry relative="1" as="geometry" />
        </mxCell>
        <mxCell id="vvlveEdbjAr3aO2LPiAl-21" value="EJ&lt;br&gt;Front End" style="ellipse;whiteSpace=wrap;html=1;" vertex="1" parent="1">
          <mxGeometry x="240" y="810" width="70" height="70" as="geometry" />
        </mxCell>
        <mxCell id="vvlveEdbjAr3aO2LPiAl-28" style="edgeStyle=orthogonalEdgeStyle;rounded=0;orthogonalLoop=1;jettySize=auto;html=1;entryX=0;entryY=0.5;entryDx=0;entryDy=0;exitX=0.5;exitY=1;exitDx=0;exitDy=0;" edge="1" parent="1" source="vvlveEdbjAr3aO2LPiAl-23" target="vvlveEdbjAr3aO2LPiAl-27">
          <mxGeometry relative="1" as="geometry" />
        </mxCell>
        <mxCell id="vvlveEdbjAr3aO2LPiAl-23" value="EJ&lt;br&gt;Front End" style="ellipse;whiteSpace=wrap;html=1;" vertex="1" parent="1">
          <mxGeometry x="240" y="920" width="70" height="70" as="geometry" />
        </mxCell>
        <mxCell id="vvlveEdbjAr3aO2LPiAl-25" value="17/10" style="text;html=1;strokeColor=none;fillColor=none;align=center;verticalAlign=middle;whiteSpace=wrap;rounded=0;" vertex="1" parent="1">
          <mxGeometry x="310" y="830" width="60" height="30" as="geometry" />
        </mxCell>
        <mxCell id="vvlveEdbjAr3aO2LPiAl-26" value="24/10" style="text;html=1;strokeColor=none;fillColor=none;align=center;verticalAlign=middle;whiteSpace=wrap;rounded=0;" vertex="1" parent="1">
          <mxGeometry x="310" y="940" width="60" height="30" as="geometry" />
        </mxCell>
        <mxCell id="vvlveEdbjAr3aO2LPiAl-32" style="edgeStyle=orthogonalEdgeStyle;rounded=0;orthogonalLoop=1;jettySize=auto;html=1;entryX=0;entryY=0.5;entryDx=0;entryDy=0;" edge="1" parent="1" source="vvlveEdbjAr3aO2LPiAl-27" target="vvlveEdbjAr3aO2LPiAl-31">
          <mxGeometry relative="1" as="geometry" />
        </mxCell>
        <mxCell id="vvlveEdbjAr3aO2LPiAl-27" value="Integraciones" style="ellipse;whiteSpace=wrap;html=1;" vertex="1" parent="1">
          <mxGeometry x="304" y="1030" width="80" height="80" as="geometry" />
        </mxCell>
        <mxCell id="vvlveEdbjAr3aO2LPiAl-29" value="31/10" style="text;html=1;strokeColor=none;fillColor=none;align=center;verticalAlign=middle;whiteSpace=wrap;rounded=0;" vertex="1" parent="1">
          <mxGeometry x="314" y="1120" width="60" height="30" as="geometry" />
        </mxCell>
        <mxCell id="vvlveEdbjAr3aO2LPiAl-39" style="edgeStyle=orthogonalEdgeStyle;rounded=0;orthogonalLoop=1;jettySize=auto;html=1;entryX=1;entryY=0.5;entryDx=0;entryDy=0;exitX=0;exitY=0.5;exitDx=0;exitDy=0;" edge="1" parent="1" source="vvlveEdbjAr3aO2LPiAl-30" target="vvlveEdbjAr3aO2LPiAl-38">
          <mxGeometry relative="1" as="geometry" />
        </mxCell>
        <mxCell id="vvlveEdbjAr3aO2LPiAl-30" value="QA" style="ellipse;whiteSpace=wrap;html=1;" vertex="1" parent="1">
          <mxGeometry x="640" y="920" width="70" height="70" as="geometry" />
        </mxCell>
        <mxCell id="vvlveEdbjAr3aO2LPiAl-34" style="edgeStyle=orthogonalEdgeStyle;rounded=0;orthogonalLoop=1;jettySize=auto;html=1;entryX=0.5;entryY=1;entryDx=0;entryDy=0;" edge="1" parent="1" source="vvlveEdbjAr3aO2LPiAl-31" target="vvlveEdbjAr3aO2LPiAl-30">
          <mxGeometry relative="1" as="geometry" />
        </mxCell>
        <mxCell id="vvlveEdbjAr3aO2LPiAl-41" style="edgeStyle=orthogonalEdgeStyle;rounded=0;orthogonalLoop=1;jettySize=auto;html=1;entryX=0.5;entryY=1;entryDx=0;entryDy=0;" edge="1" parent="1" source="vvlveEdbjAr3aO2LPiAl-31" target="vvlveEdbjAr3aO2LPiAl-38">
          <mxGeometry relative="1" as="geometry" />
        </mxCell>
        <mxCell id="vvlveEdbjAr3aO2LPiAl-31" value="Fin&lt;br&gt;EJ&lt;br&gt;Integrador" style="ellipse;whiteSpace=wrap;html=1;" vertex="1" parent="1">
          <mxGeometry x="444" y="1030" width="80" height="80" as="geometry" />
        </mxCell>
        <mxCell id="vvlveEdbjAr3aO2LPiAl-33" value="07/11" style="text;html=1;strokeColor=none;fillColor=none;align=center;verticalAlign=middle;whiteSpace=wrap;rounded=0;" vertex="1" parent="1">
          <mxGeometry x="454" y="1120" width="60" height="30" as="geometry" />
        </mxCell>
        <mxCell id="vvlveEdbjAr3aO2LPiAl-46" style="edgeStyle=orthogonalEdgeStyle;rounded=0;orthogonalLoop=1;jettySize=auto;html=1;entryX=0;entryY=0.5;entryDx=0;entryDy=0;" edge="1" parent="1" source="vvlveEdbjAr3aO2LPiAl-35" target="vvlveEdbjAr3aO2LPiAl-18">
          <mxGeometry relative="1" as="geometry" />
        </mxCell>
        <mxCell id="vvlveEdbjAr3aO2LPiAl-35" value="Project&lt;br&gt;Manager" style="ellipse;whiteSpace=wrap;html=1;" vertex="1" parent="1">
          <mxGeometry x="90" y="700" width="70" height="70" as="geometry" />
        </mxCell>
        <mxCell id="vvlveEdbjAr3aO2LPiAl-49" style="edgeStyle=orthogonalEdgeStyle;rounded=0;orthogonalLoop=1;jettySize=auto;html=1;entryX=0.5;entryY=1;entryDx=0;entryDy=0;" edge="1" parent="1" source="vvlveEdbjAr3aO2LPiAl-38" target="vvlveEdbjAr3aO2LPiAl-47">
          <mxGeometry relative="1" as="geometry" />
        </mxCell>
        <mxCell id="vvlveEdbjAr3aO2LPiAl-38" value="Analisis&lt;br&gt;+&lt;br&gt;EJ" style="ellipse;whiteSpace=wrap;html=1;" vertex="1" parent="1">
          <mxGeometry x="449" y="920" width="70" height="70" as="geometry" />
        </mxCell>
        <mxCell id="vvlveEdbjAr3aO2LPiAl-42" value="14/11" style="text;html=1;strokeColor=none;fillColor=none;align=center;verticalAlign=middle;whiteSpace=wrap;rounded=0;" vertex="1" parent="1">
          <mxGeometry x="710" y="940" width="60" height="30" as="geometry" />
        </mxCell>
        <mxCell id="vvlveEdbjAr3aO2LPiAl-45" style="edgeStyle=orthogonalEdgeStyle;rounded=0;orthogonalLoop=1;jettySize=auto;html=1;entryX=0;entryY=0.5;entryDx=0;entryDy=0;" edge="1" parent="1" source="vvlveEdbjAr3aO2LPiAl-43" target="vvlveEdbjAr3aO2LPiAl-3">
          <mxGeometry relative="1" as="geometry" />
        </mxCell>
        <mxCell id="vvlveEdbjAr3aO2LPiAl-43" value="Diagramas" style="ellipse;whiteSpace=wrap;html=1;" vertex="1" parent="1">
          <mxGeometry x="100" y="350" width="70" height="70" as="geometry" />
        </mxCell>
        <mxCell id="vvlveEdbjAr3aO2LPiAl-47" value="Analisis&lt;br&gt;+&lt;br&gt;EJ" style="ellipse;whiteSpace=wrap;html=1;" vertex="1" parent="1">
          <mxGeometry x="449" y="810" width="70" height="70" as="geometry" />
        </mxCell>
        <mxCell id="vvlveEdbjAr3aO2LPiAl-48" value="21/11" style="text;html=1;strokeColor=none;fillColor=none;align=center;verticalAlign=middle;whiteSpace=wrap;rounded=0;" vertex="1" parent="1">
          <mxGeometry x="530" y="830" width="60" height="30" as="geometry" />
        </mxCell>
      </root>
    </mxGraphModel>
  </diagram>
  <diagram id="UfGwQsQ75zkboYUWp_VT" name="PÃ¡gina-2">
    <mxGraphModel dx="989" dy="523" grid="1" gridSize="10" guides="1" tooltips="1" connect="1" arrows="1" fold="1" page="1" pageScale="1" pageWidth="827" pageHeight="1169" math="0" shadow="0">
      <root>
        <mxCell id="0" />
        <mxCell id="1" parent="0" />
        <mxCell id="nwae5Uwrv7kKRyVhHYhD-3" style="edgeStyle=orthogonalEdgeStyle;rounded=0;orthogonalLoop=1;jettySize=auto;html=1;" edge="1" parent="1" source="nwae5Uwrv7kKRyVhHYhD-1" target="nwae5Uwrv7kKRyVhHYhD-2">
          <mxGeometry relative="1" as="geometry" />
        </mxCell>
        <mxCell id="nwae5Uwrv7kKRyVhHYhD-12" style="edgeStyle=orthogonalEdgeStyle;rounded=0;orthogonalLoop=1;jettySize=auto;html=1;shape=link;" edge="1" parent="1" source="nwae5Uwrv7kKRyVhHYhD-1" target="nwae5Uwrv7kKRyVhHYhD-10">
          <mxGeometry relative="1" as="geometry" />
        </mxCell>
        <mxCell id="nwae5Uwrv7kKRyVhHYhD-1" value="main" style="ellipse;whiteSpace=wrap;html=1;" vertex="1" parent="1">
          <mxGeometry x="374" y="100" width="40" height="40" as="geometry" />
        </mxCell>
        <mxCell id="nwae5Uwrv7kKRyVhHYhD-2" value="pokemon" style="ellipse;whiteSpace=wrap;html=1;" vertex="1" parent="1">
          <mxGeometry x="556" y="170" width="60" height="60" as="geometry" />
        </mxCell>
        <mxCell id="nwae5Uwrv7kKRyVhHYhD-7" style="edgeStyle=orthogonalEdgeStyle;rounded=0;orthogonalLoop=1;jettySize=auto;html=1;entryX=0.5;entryY=0;entryDx=0;entryDy=0;" edge="1" parent="1" source="nwae5Uwrv7kKRyVhHYhD-4" target="nwae5Uwrv7kKRyVhHYhD-6">
          <mxGeometry relative="1" as="geometry" />
        </mxCell>
        <mxCell id="nwae5Uwrv7kKRyVhHYhD-4" value="commit" style="rounded=0;whiteSpace=wrap;html=1;" vertex="1" parent="1">
          <mxGeometry x="530" y="230" width="120" height="20" as="geometry" />
        </mxCell>
        <mxCell id="nwae5Uwrv7kKRyVhHYhD-6" value="PR to main" style="shape=trapezoid;perimeter=trapezoidPerimeter;whiteSpace=wrap;html=1;fixedSize=1;" vertex="1" parent="1">
          <mxGeometry x="450" y="290" width="120" height="60" as="geometry" />
        </mxCell>
        <mxCell id="nwae5Uwrv7kKRyVhHYhD-8" value="Approve" style="rounded=0;whiteSpace=wrap;html=1;" vertex="1" parent="1">
          <mxGeometry x="450" y="350" width="120" height="20" as="geometry" />
        </mxCell>
        <mxCell id="nwae5Uwrv7kKRyVhHYhD-11" style="edgeStyle=orthogonalEdgeStyle;rounded=0;orthogonalLoop=1;jettySize=auto;html=1;entryX=1;entryY=0.5;entryDx=0;entryDy=0;exitX=0.5;exitY=1;exitDx=0;exitDy=0;" edge="1" parent="1" source="nwae5Uwrv7kKRyVhHYhD-9" target="nwae5Uwrv7kKRyVhHYhD-10">
          <mxGeometry relative="1" as="geometry" />
        </mxCell>
        <mxCell id="nwae5Uwrv7kKRyVhHYhD-9" value="Merge" style="rounded=0;whiteSpace=wrap;html=1;" vertex="1" parent="1">
          <mxGeometry x="450" y="370" width="120" height="20" as="geometry" />
        </mxCell>
        <mxCell id="nwae5Uwrv7kKRyVhHYhD-10" value="main" style="ellipse;whiteSpace=wrap;html=1;" vertex="1" parent="1">
          <mxGeometry x="374" y="400" width="40" height="40" as="geometry" />
        </mxCell>
      </root>
    </mxGraphModel>
  </diagram>
</mxfile>
